<!DOCTYPE svg PUBLIC "-//W3C//DTD SVG 1.1//EN" "http://www.w3.org/Graphics/SVG/1.1/DTD/svg11.dtd">

<!-- Uploaded to: SVG Repo, www.svgrepo.com, Transformed by: SVG Repo Mixer Tools -->
<svg height="28px" width="28px" version="1.1" id="Layer_1" xmlns="http://www.w3.org/2000/svg" xmlns:xlink="http://www.w3.org/1999/xlink" viewBox="0 0 503.467 503.467" xml:space="preserve" fill="#ffffff" stroke="#ffffff">

<g id="SVGRepo_bgCarrier" stroke-width="0"/>

<g id="SVGRepo_tracerCarrier" stroke-linecap="round" stroke-linejoin="round"/>

<g id="SVGRepo_iconCarrier"> <g transform="translate(1 5)"> <path style="fill:#ffffff;" d="M247.32,198.947c-3.413-3.413-5.12-7.68-5.12-11.947v-17.067v-17.067 c0-9.387,7.68-17.067,17.067-17.067c5.12,0,9.387,1.707,11.947,5.12c3.413,3.413,5.12,7.68,5.12,11.947V187 c0,9.387-7.68,17.067-17.067,17.067l-8.533-2.56c-0.853,0-1.707-0.853-2.56-1.707L247.32,198.947z"/> <path style="fill:#ffffff;" d="M378.733,84.6c0,9.387-7.68,17.067-17.067,17.067l-8.533-2.56c-0.853,0-1.707-0.853-2.56-1.707 l-1.707-1.707c-3.413-3.413-5.12-7.68-5.12-11.947V66.68V49.613c0-9.387,7.68-17.067,17.067-17.067c5.12,0,9.387,1.707,11.947,5.12 c3.413,3.413,5.12,7.68,5.12,11.947V84.6H378.733z M191,50.467c0-9.387,7.68-17.067,17.067-17.067c5.12,0,9.387,1.707,11.947,5.12 c3.413,3.413,5.12,7.68,5.12,11.947V84.6c0,9.387-7.68,17.067-17.067,17.067l-8.533-2.56c-0.853,0-1.707-0.853-2.56-1.707 l-1.707-1.707c-3.413-3.413-5.12-7.68-5.12-11.947V66.68V50.467H191z"/> <path style="fill:#ffffff;" d="M366.787,301.347c-3.413-3.413-5.12-7.68-5.12-11.947v-17.067v-17.067 c0-9.387,7.68-17.067,17.067-17.067c5.12,0,9.387,1.707,11.947,5.12c3.413,3.413,5.12,7.68,5.12,11.947V289.4 c0,9.387-7.68,17.067-17.067,17.067l-8.533-1.707c-0.853,0-1.707-0.853-2.56-1.707L366.787,301.347z M105.667,238.2 c4.267,0,8.533,1.707,11.947,5.12c3.413,3.413,5.12,7.68,5.12,11.947V289.4c0,9.387-7.68,17.067-17.067,17.067l-8.533-2.56 c-0.853,0-1.707-0.853-2.56-1.707l-1.707-1.707c-3.413-3.413-5.12-7.68-5.12-11.947V271.48v-17.067 C88.6,245.88,96.28,238.2,105.667,238.2z M173.933,255.267c0-9.387,7.68-17.067,17.067-17.067c5.12,0,9.387,1.707,11.947,5.12 c3.413,3.413,5.12,7.68,5.12,11.947V289.4c0,9.387-7.68,17.067-17.067,17.067l-8.533-2.56c-0.853,0-1.707-0.853-2.56-1.707 l-1.707-1.707c-3.413-3.413-5.12-7.68-5.12-11.947V271.48v-16.213H173.933z"/> <path style="fill:#ffffff;" d="M344.6,357.667V391.8c0,9.387-7.68,17.067-17.067,17.067l-8.533-2.56 c-0.853,0-1.707-0.853-2.56-1.707l-1.707-1.707c-3.413-3.413-5.12-7.68-5.12-11.947V373.88v-17.067 c0-9.387,7.68-17.067,17.067-17.067c5.12,0,9.387,1.707,11.947,5.12C342.893,349.133,344.6,353.4,344.6,357.667z M156.867,357.667 c0-9.387,7.68-17.067,17.067-17.067c5.12,0,9.387,1.707,11.947,5.12c3.413,3.413,5.12,7.68,5.12,11.947V391.8 c0,9.387-7.68,17.067-17.067,17.067l-8.533-2.56c-0.853,0-1.707-0.853-2.56-1.707l-1.707-1.707c-3.413-3.413-5.12-7.68-5.12-11.947 V373.88v-16.213H156.867z"/> <path style="fill:#ffffff;" d="M498.2,494.2H3.267v-17.067c0,0,0-17.067,17.067-17.067h460.8c17.067,0,17.067,17.067,17.067,17.067 V494.2z"/> </g> <path style="fill:#ffffff;" d="M499.2,503.467H4.267C1.707,503.467,0,501.76,0,499.2v-17.067c0-6.827,3.413-18.773,17.067-21.333 V4.267c0-2.56,1.707-4.267,4.267-4.267S25.6,1.707,25.6,4.267v460.8c0,2.56-1.707,4.267-4.267,4.267 c-11.947,0-12.8,11.093-12.8,12.8v12.8h486.4v-12.8c0-1.707-0.853-12.8-12.8-12.8H55.467c-2.56,0-4.267-1.707-4.267-4.267 c0-2.56,1.707-4.267,4.267-4.267h426.667c17.067,0,21.333,13.653,21.333,21.333V499.2C503.467,501.76,501.76,503.467,499.2,503.467z M482.133,435.2c-2.56,0-4.267-1.707-4.267-4.267V4.267c0-2.56,1.707-4.267,4.267-4.267s4.267,1.707,4.267,4.267v426.667 C486.4,433.493,484.693,435.2,482.133,435.2z M328.533,418.133c-5.973,0-11.093-2.56-15.36-5.973c-1.707-1.707-1.707-4.267,0-5.973 c1.707-1.707,4.267-1.707,5.973,0c2.56,2.56,5.973,3.413,9.387,3.413c6.827,0,12.8-5.973,12.8-12.8v-34.133 c0-6.827-5.973-12.8-12.8-12.8s-12.8,5.973-12.8,12.8v17.067c0,2.56-1.707,4.267-4.267,4.267h-85.333 c-2.56,0-4.267-1.707-4.267-4.267s1.707-4.267,4.267-4.267H307.2v-12.8c0-11.947,9.387-21.333,21.333-21.333 s21.333,9.387,21.333,21.333V396.8C349.867,408.747,340.48,418.133,328.533,418.133z M174.933,418.133 c-5.973,0-11.093-2.56-15.36-5.973c-1.707-1.707-1.707-4.267,0-5.973c1.707-1.707,4.267-1.707,5.973,0 c2.56,2.56,5.973,3.413,9.387,3.413c6.827,0,12.8-5.973,12.8-12.8v-34.133c0-6.827-5.973-12.8-12.8-12.8 c-6.827,0-12.8,5.973-12.8,12.8v17.067c0,2.56-1.707,4.267-4.267,4.267h-102.4c-2.56,0-4.267-1.707-4.267-4.267 s1.707-4.267,4.267-4.267H153.6v-12.8c0-11.947,9.387-21.333,21.333-21.333c11.947,0,21.333,9.387,21.333,21.333V396.8 C196.267,408.747,186.88,418.133,174.933,418.133z M448,384h-68.267c-2.56,0-4.267-1.707-4.267-4.267 c0-2.56,1.707-4.267,4.267-4.267H448c2.56,0,4.267,1.707,4.267,4.267C452.267,382.293,450.56,384,448,384z M379.733,315.733 c-5.973,0-11.093-2.56-15.36-5.973c-1.707-1.707-1.707-4.267,0-5.973c1.707-1.707,4.267-1.707,5.973,0 c2.56,2.56,5.973,3.413,9.387,3.413c6.827,0,12.8-5.973,12.8-12.8v-34.133c0-6.827-5.973-12.8-12.8-12.8 c-6.827,0-12.8,5.973-12.8,12.8v17.067c0,2.56-1.707,4.267-4.267,4.267H243.2c-2.56,0-4.267-1.707-4.267-4.267 c0-2.56,1.707-4.267,4.267-4.267h115.2v-12.8c0-11.947,9.387-21.333,21.333-21.333c11.947,0,21.333,9.387,21.333,21.333V294.4 C401.067,306.347,391.68,315.733,379.733,315.733z M192,315.733c-5.973,0-11.093-2.56-15.36-5.973c-1.707-1.707-1.707-4.267,0-5.973 c1.707-1.707,4.267-1.707,5.973,0c2.56,2.56,5.973,3.413,9.387,3.413c6.827,0,12.8-5.973,12.8-12.8v-34.133 c0-6.827-5.973-12.8-12.8-12.8c-6.827,0-12.8,5.973-12.8,12.8v17.067c0,2.56-1.707,4.267-4.267,4.267h-17.067 c-2.56,0-4.267-1.707-4.267-4.267c0-2.56,1.707-4.267,4.267-4.267h12.8v-12.8c0-11.947,9.387-21.333,21.333-21.333 c11.947,0,21.333,9.387,21.333,21.333V294.4C213.333,306.347,203.947,315.733,192,315.733z M106.667,315.733 c-5.973,0-11.093-2.56-15.36-5.973c-1.707-1.707-1.707-4.267,0-5.973c1.707-1.707,4.267-1.707,5.973,0 c2.56,2.56,5.973,3.413,9.387,3.413c6.827,0,12.8-5.973,12.8-12.8v-34.133c0-6.827-5.973-12.8-12.8-12.8s-12.8,5.973-12.8,12.8 v17.067c0,2.56-1.707,4.267-4.267,4.267H55.467c-2.56,0-4.267-1.707-4.267-4.267c0-2.56,1.707-4.267,4.267-4.267h29.867v-12.8 c0-11.947,9.387-21.333,21.333-21.333S128,248.32,128,260.267V294.4C128,306.347,118.613,315.733,106.667,315.733z M448,281.6 h-17.067c-2.56,0-4.267-1.707-4.267-4.267s1.707-4.267,4.267-4.267H448c2.56,0,4.267,1.707,4.267,4.267S450.56,281.6,448,281.6z M260.267,213.333c-5.973,0-11.093-2.56-15.36-5.973c-1.707-1.707-1.707-4.267,0-5.973c1.707-1.707,4.267-1.707,5.973,0 c2.56,2.56,5.973,3.413,9.387,3.413c6.827,0,12.8-5.973,12.8-12.8v-34.133c0-6.827-5.973-12.8-12.8-12.8 c-6.827,0-12.8,5.973-12.8,12.8v17.067c0,2.56-1.707,4.267-4.267,4.267H55.467c-2.56,0-4.267-1.707-4.267-4.267 c0-2.56,1.707-4.267,4.267-4.267h183.467v-12.8c0-11.947,9.387-21.333,21.333-21.333c11.947,0,21.333,9.387,21.333,21.333V192 C281.6,203.947,272.213,213.333,260.267,213.333z M448,179.2H311.467c-2.56,0-4.267-1.707-4.267-4.267 c0-2.56,1.707-4.267,4.267-4.267H448c2.56,0,4.267,1.707,4.267,4.267C452.267,177.493,450.56,179.2,448,179.2z M362.667,110.933 c-5.973,0-11.093-2.56-15.36-5.973c-1.707-1.707-1.707-4.267,0-5.973c1.707-1.707,4.267-1.707,5.973,0 c2.56,2.56,5.973,3.413,9.387,3.413c6.827,0,12.8-5.973,12.8-12.8V55.466c0-6.827-5.973-12.8-12.8-12.8s-12.8,5.973-12.8,12.8 v17.067c0,2.56-1.707,4.267-4.267,4.267h-85.333c-2.56,0-4.267-1.707-4.267-4.267c0-2.56,1.707-4.267,4.267-4.267h81.067v-12.8 c0-11.947,9.387-21.333,21.333-21.333S384,43.52,384,55.467V89.6C384,101.547,374.613,110.933,362.667,110.933z M209.067,110.933 c-5.973,0-11.093-2.56-15.36-5.973c-1.707-1.707-1.707-4.267,0-5.973s4.267-1.707,5.973,0c2.56,2.56,5.973,3.413,9.387,3.413 c6.827,0,12.8-5.973,12.8-12.8V55.466c0-6.827-5.973-12.8-12.8-12.8s-12.8,5.973-12.8,12.8v17.067c0,2.56-1.707,4.267-4.267,4.267 H55.467c-2.56,0-4.267-1.707-4.267-4.267c0-2.56,1.707-4.267,4.267-4.267h132.267v-12.8c0-11.947,9.387-21.333,21.333-21.333 c11.947,0,21.333,9.387,21.333,21.333V89.6C230.4,101.547,221.013,110.933,209.067,110.933z M448,76.8h-34.133 c-2.56,0-4.267-1.707-4.267-4.267c0-2.56,1.707-4.267,4.267-4.267H448c2.56,0,4.267,1.707,4.267,4.267 C452.267,75.093,450.56,76.8,448,76.8z"/> </g>

</svg>